<svg width="33" height="26" viewBox="0 0 33 26" fill="none" xmlns="http://www.w3.org/2000/svg">
<path d="M3 25.5C2.175 25.5 1.46875 25.2062 0.88125 24.6187C0.29375 24.0312 0 23.325 0 22.5C0 21.675 0.29375 20.9688 0.88125 20.3813C1.46875 19.7938 2.175 19.5 3 19.5C3.15 19.5 3.28125 19.5 3.39375 19.5C3.50625 19.5 3.625 19.525 3.75 19.575L10.575 12.75C10.525 12.625 10.5 12.5063 10.5 12.3938C10.5 12.2812 10.5 12.15 10.5 12C10.5 11.175 10.7938 10.4688 11.3813 9.88125C11.9688 9.29375 12.675 9 13.5 9C14.325 9 15.0312 9.29375 15.6187 9.88125C16.2062 10.4688 16.5 11.175 16.5 12C16.5 12.05 16.475 12.3 16.425 12.75L20.25 16.575C20.375 16.525 20.4938 16.5 20.6063 16.5C20.7188 16.5 20.85 16.5 21 16.5C21.15 16.5 21.2812 16.5 21.3937 16.5C21.5062 16.5 21.625 16.525 21.75 16.575L27.075 11.25C27.025 11.125 27 11.0063 27 10.8938C27 10.7812 27 10.65 27 10.5C27 9.675 27.2938 8.96875 27.8813 8.38125C28.4688 7.79375 29.175 7.5 30 7.5C30.825 7.5 31.5313 7.79375 32.1188 8.38125C32.7063 8.96875 33 9.675 33 10.5C33 11.325 32.7063 12.0312 32.1188 12.6187C31.5313 13.2062 30.825 13.5 30 13.5C29.85 13.5 29.7188 13.5 29.6063 13.5C29.4938 13.5 29.375 13.475 29.25 13.425L23.925 18.75C23.975 18.875 24 18.9938 24 19.1063C24 19.2188 24 19.35 24 19.5C24 20.325 23.7062 21.0312 23.1187 21.6187C22.5312 22.2062 21.825 22.5 21 22.5C20.175 22.5 19.4688 22.2062 18.8813 21.6187C18.2938 21.0312 18 20.325 18 19.5C18 19.35 18 19.2188 18 19.1063C18 18.9938 18.025 18.875 18.075 18.75L14.25 14.925C14.125 14.975 14.0063 15 13.8938 15C13.7812 15 13.65 15 13.5 15C13.45 15 13.2 14.975 12.75 14.925L5.925 21.75C5.975 21.875 6 21.9938 6 22.1063C6 22.2188 6 22.35 6 22.5C6 23.325 5.70625 24.0312 5.11875 24.6187C4.53125 25.2062 3.825 25.5 3 25.5ZM4.5 10.4625L3.5625 8.4375L1.5375 7.5L3.5625 6.5625L4.5 4.5375L5.4375 6.5625L7.4625 7.5L5.4375 8.4375L4.5 10.4625ZM21 9L19.575 5.925L16.5 4.5L19.575 3.075L21 0L22.425 3.075L25.5 4.5L22.425 5.925L21 9Z" fill="#00677E"/>
</svg>
