<svg width="33" height="24" viewBox="0 0 33 24" fill="none" xmlns="http://www.w3.org/2000/svg">
<path d="M14.025 19.5L22.5 11.025L20.325 8.85L13.9875 15.1875L10.8375 12.0375L8.7 14.175L14.025 19.5ZM8.25 24C5.975 24 4.03125 23.2125 2.41875 21.6375C0.80625 20.0625 0 18.1375 0 15.8625C0 13.9125 0.5875 12.175 1.7625 10.65C2.9375 9.125 4.475 8.15 6.375 7.725C7 5.425 8.25 3.5625 10.125 2.1375C12 0.7125 14.125 0 16.5 0C19.425 0 21.9062 1.01875 23.9438 3.05625C25.9813 5.09375 27 7.575 27 10.5C28.725 10.7 30.1562 11.4437 31.2938 12.7312C32.4313 14.0188 33 15.525 33 17.25C33 19.125 32.3438 20.7188 31.0312 22.0312C29.7188 23.3438 28.125 24 26.25 24H8.25ZM8.25 21H26.25C27.3 21 28.1875 20.6375 28.9125 19.9125C29.6375 19.1875 30 18.3 30 17.25C30 16.2 29.6375 15.3125 28.9125 14.5875C28.1875 13.8625 27.3 13.5 26.25 13.5H24V10.5C24 8.425 23.2687 6.65625 21.8062 5.19375C20.3438 3.73125 18.575 3 16.5 3C14.425 3 12.6562 3.73125 11.1938 5.19375C9.73125 6.65625 9 8.425 9 10.5H8.25C6.8 10.5 5.5625 11.0125 4.5375 12.0375C3.5125 13.0625 3 14.3 3 15.75C3 17.2 3.5125 18.4375 4.5375 19.4625C5.5625 20.4875 6.8 21 8.25 21Z" fill="#00677E"/>
</svg>
