<svg width="56" height="56" viewBox="0 0 56 56" fill="none" xmlns="http://www.w3.org/2000/svg">
<rect width="56" height="56" fill="#00D2FD"/>
<path d="M28 40.5C25.1042 39.7708 22.7135 38.1094 20.8281 35.5156C18.9427 32.9219 18 30.0417 18 26.875V19.25L28 15.5L38 19.25V26.875C38 30.0417 37.0573 32.9219 35.1719 35.5156C33.2865 38.1094 30.8958 39.7708 28 40.5V40.5M28 37.875C30.1667 37.1875 31.9583 35.8125 33.375 33.75C34.7917 31.6875 35.5 29.3958 35.5 26.875V20.9688L28 18.1562L20.5 20.9688V26.875C20.5 29.3958 21.2083 31.6875 22.625 33.75C24.0417 35.8125 25.8333 37.1875 28 37.875V37.875M28 28V28V28V28V28V28V28V28V28V28" fill="#00677E"/>
</svg>
