<svg width="56" height="56" viewBox="0 0 56 56" fill="none" xmlns="http://www.w3.org/2000/svg">
<rect width="56" height="56" fill="#00D2FD"/>
<path d="M22.375 19.875C21.8542 19.875 21.4115 20.0573 21.0469 20.4219C20.6823 20.7865 20.5 21.2292 20.5 21.75C20.5 22.2708 20.6823 22.7135 21.0469 23.0781C21.4115 23.4427 21.8542 23.625 22.375 23.625C22.8958 23.625 23.3385 23.4427 23.7031 23.0781C24.0677 22.7135 24.25 22.2708 24.25 21.75C24.25 21.2292 24.0677 20.7865 23.7031 20.4219C23.3385 20.0573 22.8958 19.875 22.375 19.875V19.875M22.375 32.375C21.8542 32.375 21.4115 32.5573 21.0469 32.9219C20.6823 33.2865 20.5 33.7292 20.5 34.25C20.5 34.7708 20.6823 35.2135 21.0469 35.5781C21.4115 35.9427 21.8542 36.125 22.375 36.125C22.8958 36.125 23.3385 35.9427 23.7031 35.5781C24.0677 35.2135 24.25 34.7708 24.25 34.25C24.25 33.7292 24.0677 33.2865 23.7031 32.9219C23.3385 32.5573 22.8958 32.375 22.375 32.375V32.375M18 16.125H38C38.3542 16.125 38.651 16.2448 38.8906 16.4844C39.1302 16.724 39.25 17.0208 39.25 17.375V26.125C39.25 26.4792 39.1302 26.776 38.8906 27.0156C38.651 27.2552 38.3542 27.375 38 27.375H18C17.6458 27.375 17.349 27.2552 17.1094 27.0156C16.8698 26.776 16.75 26.4792 16.75 26.125V17.375C16.75 17.0208 16.8698 16.724 17.1094 16.4844C17.349 16.2448 17.6458 16.125 18 16.125V16.125M19.25 18.625V24.875H36.75V18.625H19.25V18.625M18 28.625H38C38.3542 28.625 38.651 28.7448 38.8906 28.9844C39.1302 29.224 39.25 29.5208 39.25 29.875V38.625C39.25 38.9792 39.1302 39.276 38.8906 39.5156C38.651 39.7552 38.3542 39.875 38 39.875H18C17.6458 39.875 17.349 39.7552 17.1094 39.5156C16.8698 39.276 16.75 38.9792 16.75 38.625V29.875C16.75 29.5208 16.8698 29.224 17.1094 28.9844C17.349 28.7448 17.6458 28.625 18 28.625V28.625M19.25 31.125V37.375H36.75V31.125H19.25V31.125M19.25 18.625V18.625V24.875V24.875V18.625V18.625M19.25 31.125V31.125V37.375V37.375V31.125V31.125" fill="#00677E"/>
</svg>
