<svg width="30" height="24" viewBox="0 0 30 24" fill="none" xmlns="http://www.w3.org/2000/svg">
<path d="M3 24C2.175 24 1.46875 23.7062 0.88125 23.1187C0.29375 22.5312 0 21.825 0 21V3C0 2.175 0.29375 1.46875 0.88125 0.88125C1.46875 0.29375 2.175 0 3 0H27C27.825 0 28.5312 0.29375 29.1187 0.88125C29.7062 1.46875 30 2.175 30 3V21C30 21.825 29.7062 22.5312 29.1187 23.1187C28.5312 23.7062 27.825 24 27 24H3ZM3 21H27V6H3V21ZM8.25 19.5L6.15 17.4L10.0125 13.5L6.1125 9.6L8.25 7.5L14.25 13.5L8.25 19.5ZM15 19.5V16.5H24V19.5H15Z" fill="#00677E"/>
</svg>
