<svg width="56" height="56" viewBox="0 0 56 56" fill="none" xmlns="http://www.w3.org/2000/svg">
<rect width="56" height="56" fill="#00D2FD"/>
<path d="M16.75 39.25V36.75L19.25 34.25V39.25H16.75V39.25M21.75 39.25V31.75L24.25 29.25V29.25V39.25H21.75V39.25M26.75 39.25V29.25L29.25 31.7812V39.25H26.75V39.25M31.75 39.25V31.7812L34.25 29.2812V39.25H31.75V39.25M36.75 39.25V26.75L39.25 24.25V39.25H36.75V39.25M16.75 32.7812V29.25L25.5 20.5L30.5 25.5L39.25 16.75V20.2812L30.5 29.0312L25.5 24.0312L16.75 32.7812V32.7812" fill="#00677E"/>
</svg>
