<svg width="163" height="32" viewBox="0 0 163 32" fill="none" xmlns="http://www.w3.org/2000/svg">
<path d="M0.625 19.125C0.458333 19.125 0.3125 19.0625 0.1875 18.9375C0.0625 18.8125 0 18.6667 0 18.5C0 18.3333 0.0625 18.1875 0.1875 18.0625C0.3125 17.9375 0.458333 17.875 0.625 17.875C0.791667 17.875 0.9375 17.9375 1.0625 18.0625C1.1875 18.1875 1.25 18.3333 1.25 18.5C1.25 18.6667 1.1875 18.8125 1.0625 18.9375C0.9375 19.0625 0.791667 19.125 0.625 19.125ZM0.625 14.125C0.458333 14.125 0.3125 14.0625 0.1875 13.9375C0.0625 13.8125 0 13.6667 0 13.5C0 13.3333 0.0625 13.1875 0.1875 13.0625C0.3125 12.9375 0.458333 12.875 0.625 12.875C0.791667 12.875 0.9375 12.9375 1.0625 13.0625C1.1875 13.1875 1.25 13.3333 1.25 13.5C1.25 13.6667 1.1875 13.8125 1.0625 13.9375C0.9375 14.0625 0.791667 14.125 0.625 14.125ZM4.375 24.75C4.02083 24.75 3.72396 24.6302 3.48438 24.3906C3.24479 24.151 3.125 23.8542 3.125 23.5C3.125 23.1458 3.24479 22.849 3.48438 22.6094C3.72396 22.3698 4.02083 22.25 4.375 22.25C4.72917 22.25 5.02604 22.3698 5.26562 22.6094C5.50521 22.849 5.625 23.1458 5.625 23.5C5.625 23.8542 5.50521 24.151 5.26562 24.3906C5.02604 24.6302 4.72917 24.75 4.375 24.75ZM4.375 19.75C4.02083 19.75 3.72396 19.6302 3.48438 19.3906C3.24479 19.151 3.125 18.8542 3.125 18.5C3.125 18.1458 3.24479 17.849 3.48438 17.6094C3.72396 17.3698 4.02083 17.25 4.375 17.25C4.72917 17.25 5.02604 17.3698 5.26562 17.6094C5.50521 17.849 5.625 18.1458 5.625 18.5C5.625 18.8542 5.50521 19.151 5.26562 19.3906C5.02604 19.6302 4.72917 19.75 4.375 19.75ZM4.375 14.75C4.02083 14.75 3.72396 14.6302 3.48438 14.3906C3.24479 14.151 3.125 13.8542 3.125 13.5C3.125 13.1458 3.24479 12.849 3.48438 12.6094C3.72396 12.3698 4.02083 12.25 4.375 12.25C4.72917 12.25 5.02604 12.3698 5.26562 12.6094C5.50521 12.849 5.625 13.1458 5.625 13.5C5.625 13.8542 5.50521 14.151 5.26562 14.3906C5.02604 14.6302 4.72917 14.75 4.375 14.75ZM4.375 9.75C4.02083 9.75 3.72396 9.63021 3.48438 9.39062C3.24479 9.15104 3.125 8.85417 3.125 8.5C3.125 8.14583 3.24479 7.84896 3.48438 7.60938C3.72396 7.36979 4.02083 7.25 4.375 7.25C4.72917 7.25 5.02604 7.36979 5.26562 7.60938C5.50521 7.84896 5.625 8.14583 5.625 8.5C5.625 8.85417 5.50521 9.15104 5.26562 9.39062C5.02604 9.63021 4.72917 9.75 4.375 9.75ZM9.375 20.375C8.85417 20.375 8.41146 20.1927 8.04688 19.8281C7.68229 19.4635 7.5 19.0208 7.5 18.5C7.5 17.9792 7.68229 17.5365 8.04688 17.1719C8.41146 16.8073 8.85417 16.625 9.375 16.625C9.89583 16.625 10.3385 16.8073 10.7031 17.1719C11.0677 17.5365 11.25 17.9792 11.25 18.5C11.25 19.0208 11.0677 19.4635 10.7031 19.8281C10.3385 20.1927 9.89583 20.375 9.375 20.375ZM9.375 15.375C8.85417 15.375 8.41146 15.1927 8.04688 14.8281C7.68229 14.4635 7.5 14.0208 7.5 13.5C7.5 12.9792 7.68229 12.5365 8.04688 12.1719C8.41146 11.8073 8.85417 11.625 9.375 11.625C9.89583 11.625 10.3385 11.8073 10.7031 12.1719C11.0677 12.5365 11.25 12.9792 11.25 13.5C11.25 14.0208 11.0677 14.4635 10.7031 14.8281C10.3385 15.1927 9.89583 15.375 9.375 15.375ZM9.375 24.75C9.02083 24.75 8.72396 24.6302 8.48438 24.3906C8.24479 24.151 8.125 23.8542 8.125 23.5C8.125 23.1458 8.24479 22.849 8.48438 22.6094C8.72396 22.3698 9.02083 22.25 9.375 22.25C9.72917 22.25 10.026 22.3698 10.2656 22.6094C10.5052 22.849 10.625 23.1458 10.625 23.5C10.625 23.8542 10.5052 24.151 10.2656 24.3906C10.026 24.6302 9.72917 24.75 9.375 24.75ZM9.375 9.75C9.02083 9.75 8.72396 9.63021 8.48438 9.39062C8.24479 9.15104 8.125 8.85417 8.125 8.5C8.125 8.14583 8.24479 7.84896 8.48438 7.60938C8.72396 7.36979 9.02083 7.25 9.375 7.25C9.72917 7.25 10.026 7.36979 10.2656 7.60938C10.5052 7.84896 10.625 8.14583 10.625 8.5C10.625 8.85417 10.5052 9.15104 10.2656 9.39062C10.026 9.63021 9.72917 9.75 9.375 9.75ZM9.375 27.875C9.20833 27.875 9.0625 27.8125 8.9375 27.6875C8.8125 27.5625 8.75 27.4167 8.75 27.25C8.75 27.0833 8.8125 26.9375 8.9375 26.8125C9.0625 26.6875 9.20833 26.625 9.375 26.625C9.54167 26.625 9.6875 26.6875 9.8125 26.8125C9.9375 26.9375 10 27.0833 10 27.25C10 27.4167 9.9375 27.5625 9.8125 27.6875C9.6875 27.8125 9.54167 27.875 9.375 27.875ZM9.375 5.375C9.20833 5.375 9.0625 5.3125 8.9375 5.1875C8.8125 5.0625 8.75 4.91667 8.75 4.75C8.75 4.58333 8.8125 4.4375 8.9375 4.3125C9.0625 4.1875 9.20833 4.125 9.375 4.125C9.54167 4.125 9.6875 4.1875 9.8125 4.3125C9.9375 4.4375 10 4.58333 10 4.75C10 4.91667 9.9375 5.0625 9.8125 5.1875C9.6875 5.3125 9.54167 5.375 9.375 5.375ZM14.375 20.375C13.8542 20.375 13.4115 20.1927 13.0469 19.8281C12.6823 19.4635 12.5 19.0208 12.5 18.5C12.5 17.9792 12.6823 17.5365 13.0469 17.1719C13.4115 16.8073 13.8542 16.625 14.375 16.625C14.8958 16.625 15.3385 16.8073 15.7031 17.1719C16.0677 17.5365 16.25 17.9792 16.25 18.5C16.25 19.0208 16.0677 19.4635 15.7031 19.8281C15.3385 20.1927 14.8958 20.375 14.375 20.375ZM14.375 15.375C13.8542 15.375 13.4115 15.1927 13.0469 14.8281C12.6823 14.4635 12.5 14.0208 12.5 13.5C12.5 12.9792 12.6823 12.5365 13.0469 12.1719C13.4115 11.8073 13.8542 11.625 14.375 11.625C14.8958 11.625 15.3385 11.8073 15.7031 12.1719C16.0677 12.5365 16.25 12.9792 16.25 13.5C16.25 14.0208 16.0677 14.4635 15.7031 14.8281C15.3385 15.1927 14.8958 15.375 14.375 15.375ZM14.375 24.75C14.0208 24.75 13.724 24.6302 13.4844 24.3906C13.2448 24.151 13.125 23.8542 13.125 23.5C13.125 23.1458 13.2448 22.849 13.4844 22.6094C13.724 22.3698 14.0208 22.25 14.375 22.25C14.7292 22.25 15.026 22.3698 15.2656 22.6094C15.5052 22.849 15.625 23.1458 15.625 23.5C15.625 23.8542 15.5052 24.151 15.2656 24.3906C15.026 24.6302 14.7292 24.75 14.375 24.75ZM14.375 9.75C14.0208 9.75 13.724 9.63021 13.4844 9.39062C13.2448 9.15104 13.125 8.85417 13.125 8.5C13.125 8.14583 13.2448 7.84896 13.4844 7.60938C13.724 7.36979 14.0208 7.25 14.375 7.25C14.7292 7.25 15.026 7.36979 15.2656 7.60938C15.5052 7.84896 15.625 8.14583 15.625 8.5C15.625 8.85417 15.5052 9.15104 15.2656 9.39062C15.026 9.63021 14.7292 9.75 14.375 9.75ZM14.375 27.875C14.2083 27.875 14.0625 27.8125 13.9375 27.6875C13.8125 27.5625 13.75 27.4167 13.75 27.25C13.75 27.0833 13.8125 26.9375 13.9375 26.8125C14.0625 26.6875 14.2083 26.625 14.375 26.625C14.5417 26.625 14.6875 26.6875 14.8125 26.8125C14.9375 26.9375 15 27.0833 15 27.25C15 27.4167 14.9375 27.5625 14.8125 27.6875C14.6875 27.8125 14.5417 27.875 14.375 27.875ZM14.375 5.375C14.2083 5.375 14.0625 5.3125 13.9375 5.1875C13.8125 5.0625 13.75 4.91667 13.75 4.75C13.75 4.58333 13.8125 4.4375 13.9375 4.3125C14.0625 4.1875 14.2083 4.125 14.375 4.125C14.5417 4.125 14.6875 4.1875 14.8125 4.3125C14.9375 4.4375 15 4.58333 15 4.75C15 4.91667 14.9375 5.0625 14.8125 5.1875C14.6875 5.3125 14.5417 5.375 14.375 5.375ZM19.375 24.75C19.0208 24.75 18.724 24.6302 18.4844 24.3906C18.2448 24.151 18.125 23.8542 18.125 23.5C18.125 23.1458 18.2448 22.849 18.4844 22.6094C18.724 22.3698 19.0208 22.25 19.375 22.25C19.7292 22.25 20.026 22.3698 20.2656 22.6094C20.5052 22.849 20.625 23.1458 20.625 23.5C20.625 23.8542 20.5052 24.151 20.2656 24.3906C20.026 24.6302 19.7292 24.75 19.375 24.75ZM19.375 19.75C19.0208 19.75 18.724 19.6302 18.4844 19.3906C18.2448 19.151 18.125 18.8542 18.125 18.5C18.125 18.1458 18.2448 17.849 18.4844 17.6094C18.724 17.3698 19.0208 17.25 19.375 17.25C19.7292 17.25 20.026 17.3698 20.2656 17.6094C20.5052 17.849 20.625 18.1458 20.625 18.5C20.625 18.8542 20.5052 19.151 20.2656 19.3906C20.026 19.6302 19.7292 19.75 19.375 19.75ZM19.375 14.75C19.0208 14.75 18.724 14.6302 18.4844 14.3906C18.2448 14.151 18.125 13.8542 18.125 13.5C18.125 13.1458 18.2448 12.849 18.4844 12.6094C18.724 12.3698 19.0208 12.25 19.375 12.25C19.7292 12.25 20.026 12.3698 20.2656 12.6094C20.5052 12.849 20.625 13.1458 20.625 13.5C20.625 13.8542 20.5052 14.151 20.2656 14.3906C20.026 14.6302 19.7292 14.75 19.375 14.75ZM19.375 9.75C19.0208 9.75 18.724 9.63021 18.4844 9.39062C18.2448 9.15104 18.125 8.85417 18.125 8.5C18.125 8.14583 18.2448 7.84896 18.4844 7.60938C18.724 7.36979 19.0208 7.25 19.375 7.25C19.7292 7.25 20.026 7.36979 20.2656 7.60938C20.5052 7.84896 20.625 8.14583 20.625 8.5C20.625 8.85417 20.5052 9.15104 20.2656 9.39062C20.026 9.63021 19.7292 9.75 19.375 9.75ZM23.125 19.125C22.9583 19.125 22.8125 19.0625 22.6875 18.9375C22.5625 18.8125 22.5 18.6667 22.5 18.5C22.5 18.3333 22.5625 18.1875 22.6875 18.0625C22.8125 17.9375 22.9583 17.875 23.125 17.875C23.2917 17.875 23.4375 17.9375 23.5625 18.0625C23.6875 18.1875 23.75 18.3333 23.75 18.5C23.75 18.6667 23.6875 18.8125 23.5625 18.9375C23.4375 19.0625 23.2917 19.125 23.125 19.125ZM23.125 14.125C22.9583 14.125 22.8125 14.0625 22.6875 13.9375C22.5625 13.8125 22.5 13.6667 22.5 13.5C22.5 13.3333 22.5625 13.1875 22.6875 13.0625C22.8125 12.9375 22.9583 12.875 23.125 12.875C23.2917 12.875 23.4375 12.9375 23.5625 13.0625C23.6875 13.1875 23.75 13.3333 23.75 13.5C23.75 13.6667 23.6875 13.8125 23.5625 13.9375C23.4375 14.0625 23.2917 14.125 23.125 14.125Z" fill="#000F22"/>
<path d="M36.3214 25L42.2942 7.53906H46.9734L53.0978 25H49.1213L46.3232 16.5772C45.9827 15.4893 45.6399 14.2981 45.2948 13.0036C44.9498 11.709 44.5856 10.2985 44.2023 8.77189H44.9786C44.6073 10.3056 44.26 11.7234 43.9367 13.0251C43.6133 14.3269 43.291 15.5109 42.9697 16.5772L40.2707 25H36.3214ZM40.0532 20.9477V18.1417H49.3661V20.9477H40.0532ZM53.8686 25V22.8728L60.3366 14.8324V14.7351H54.0776V11.8984H64.5868V14.2261L58.4943 22.066V22.1633H64.8086V25H53.8686ZM71.0222 25.1641C70.1183 25.1641 69.3271 24.9666 68.6486 24.5717C67.9701 24.1768 67.4442 23.61 67.071 22.8714C66.6978 22.1328 66.5112 21.2528 66.5112 20.2314V11.8984H70.0255V19.619C70.0255 20.4327 70.2363 21.0709 70.6579 21.5336C71.0794 21.9964 71.6607 22.2277 72.4018 22.2277C72.9003 22.2277 73.3395 22.1195 73.7196 21.903C74.0996 21.6865 74.3984 21.3726 74.6157 20.9613C74.833 20.55 74.9417 20.0576 74.9417 19.4842V11.8984H78.4614V25H75.1376L75.087 21.7293H75.2923C74.9451 22.8293 74.4196 23.6767 73.7157 24.2717C73.0118 24.8666 72.114 25.1641 71.0222 25.1641ZM80.2526 25V11.8984H83.6587V14.1799H83.7993C84.0373 13.3724 84.4394 12.7611 85.0056 12.3461C85.5719 11.9311 86.2224 11.7236 86.9572 11.7236C87.1388 11.7236 87.3338 11.7338 87.5424 11.7543C87.7509 11.7748 87.9345 11.8037 88.0933 11.841V14.981C87.9379 14.9274 87.711 14.8839 87.4125 14.8506C87.114 14.8172 86.8347 14.8005 86.5745 14.8005C86.0381 14.8005 85.5567 14.9166 85.1302 15.1488C84.7037 15.381 84.3699 15.7024 84.1287 16.113C83.8875 16.5237 83.767 17.0005 83.767 17.5436V25H80.2526ZM94.1656 25.2559C92.8283 25.2559 91.6753 24.9821 90.7067 24.4343C89.7381 23.8866 88.9942 23.1088 88.4749 22.101C87.9556 21.0932 87.6959 19.8984 87.6959 18.5167C87.6959 17.1687 87.9539 15.9862 88.4699 14.9691C88.986 13.952 89.7158 13.1586 90.6595 12.5889C91.6032 12.0192 92.7131 11.7344 93.9892 11.7344C94.8448 11.7344 95.6442 11.8707 96.3875 12.1434C97.1308 12.416 97.7831 12.8272 98.3445 13.3769C98.9058 13.9266 99.3442 14.6173 99.6597 15.449C99.9751 16.2807 100.133 17.2577 100.133 18.3801V19.3666H89.1383V17.155H98.4202L96.7777 17.7479C96.7777 17.0658 96.6735 16.473 96.4652 15.9695C96.2568 15.4661 95.9482 15.0756 95.5393 14.7979C95.1304 14.5203 94.6221 14.3815 94.0145 14.3815C93.4068 14.3815 92.8914 14.5221 92.4681 14.8033C92.0448 15.0846 91.7227 15.4661 91.5018 15.948C91.2809 16.4299 91.1704 16.9777 91.1704 17.5916V19.1486C91.1704 19.9064 91.2972 20.543 91.5509 21.0585C91.8046 21.574 92.1613 21.9612 92.6213 22.2203C93.0812 22.4793 93.6146 22.6088 94.2216 22.6088C94.6318 22.6088 95.0046 22.5505 95.3399 22.4337C95.6753 22.3169 95.9637 22.1439 96.2051 21.9149C96.4465 21.6858 96.6303 21.4035 96.7564 21.0679L99.9346 21.6557C99.723 22.3794 99.3561 23.0114 98.8337 23.5514C98.3114 24.0915 97.6569 24.5106 96.8703 24.8087C96.0838 25.1069 95.1822 25.2559 94.1656 25.2559ZM105.901 25V7.53906H109.482V22.0313H117.011V25H105.901ZM124.055 25.2559C122.74 25.2559 121.603 24.9736 120.644 24.409C119.684 23.8444 118.944 23.0553 118.425 22.0418C117.906 21.0283 117.647 19.8497 117.647 18.5059C117.647 17.1514 117.906 15.9665 118.425 14.9512C118.944 13.9359 119.684 13.1459 120.644 12.5813C121.603 12.0167 122.74 11.7344 124.055 11.7344C125.372 11.7344 126.51 12.0167 127.467 12.5813C128.425 13.1459 129.163 13.9359 129.682 14.9512C130.201 15.9665 130.461 17.1514 130.461 18.5059C130.461 19.8497 130.201 21.0283 129.682 22.0418C129.163 23.0553 128.425 23.8444 127.467 24.409C126.51 24.9736 125.372 25.2559 124.055 25.2559ZM124.055 22.4895C124.68 22.4895 125.203 22.3157 125.624 21.9681C126.044 21.6204 126.359 21.145 126.57 20.5417C126.78 19.9384 126.885 19.2556 126.885 18.4933C126.885 17.7231 126.78 17.0378 126.57 16.4373C126.359 15.8367 126.044 15.3638 125.624 15.0186C125.203 14.6734 124.68 14.5008 124.055 14.5008C123.428 14.5008 122.906 14.6734 122.487 15.0186C122.068 15.3638 121.753 15.8358 121.543 16.4346C121.333 17.0333 121.228 17.7195 121.228 18.4933C121.228 19.2556 121.333 19.9384 121.543 20.5417C121.753 21.145 122.068 21.6204 122.487 21.9681C122.906 22.3157 123.428 22.4895 124.055 22.4895ZM137.531 30.1797C136.44 30.1797 135.489 30.0419 134.679 29.7662C133.868 29.4906 133.209 29.1107 132.7 28.6264C132.191 28.142 131.84 27.5878 131.647 26.9636L134.668 26.1278C134.779 26.3694 134.949 26.6056 135.178 26.8364C135.407 27.0673 135.712 27.2564 136.094 27.4037C136.476 27.551 136.951 27.6247 137.518 27.6247C138.413 27.6247 139.117 27.419 139.631 27.0076C140.144 26.5962 140.401 25.9569 140.401 25.0898V22.6799H140.126C139.969 23.0312 139.742 23.3703 139.445 23.6971C139.148 24.024 138.759 24.2919 138.278 24.5009C137.798 24.7099 137.203 24.8144 136.494 24.8144C135.511 24.8144 134.616 24.5832 133.809 24.1209C133.003 23.6585 132.361 22.955 131.883 22.0103C131.404 21.0656 131.165 19.8717 131.165 18.4286C131.165 16.9505 131.409 15.7155 131.896 14.7236C132.383 13.7317 133.031 12.9855 133.839 12.4851C134.647 11.9846 135.535 11.7344 136.503 11.7344C137.241 11.7344 137.859 11.8583 138.357 12.1061C138.854 12.3539 139.258 12.6617 139.567 13.0295C139.876 13.3973 140.112 13.7554 140.273 14.1037H140.415V11.8984H143.877V24.8905C143.877 26.0704 143.605 27.0525 143.062 27.837C142.518 28.6214 141.769 29.208 140.815 29.5967C139.861 29.9853 138.766 30.1797 137.531 30.1797ZM137.593 22.142C138.195 22.142 138.706 21.9941 139.124 21.6983C139.542 21.4025 139.861 20.9751 140.081 20.4159C140.301 19.8568 140.412 19.1872 140.412 18.407C140.412 17.6292 140.302 16.9522 140.084 16.376C139.866 15.7997 139.548 15.3516 139.129 15.0315C138.711 14.7114 138.199 14.5514 137.593 14.5514C136.98 14.5514 136.463 14.7168 136.044 15.0477C135.624 15.3785 135.307 15.833 135.093 16.411C134.879 16.989 134.772 17.6544 134.772 18.407C134.772 19.1662 134.88 19.8263 135.096 20.3872C135.312 20.9482 135.629 21.3809 136.049 21.6853C136.469 21.9898 136.983 22.142 137.593 22.142ZM145.674 25V11.8984H149.188V25H145.674ZM147.43 10.1906C146.901 10.1906 146.447 10.0137 146.07 9.65984C145.692 9.30602 145.503 8.88143 145.503 8.38608C145.503 7.88061 145.692 7.45303 146.07 7.10334C146.447 6.75365 146.901 6.5788 147.43 6.5788C147.962 6.5788 148.417 6.75342 148.795 7.10266C149.173 7.4519 149.362 7.8796 149.362 8.38574C149.362 8.88177 149.173 9.30658 148.795 9.66018C148.417 10.0138 147.962 10.1906 147.43 10.1906ZM156.835 25.2559C155.521 25.2559 154.385 24.9736 153.427 24.409C152.469 23.8444 151.731 23.0553 151.212 22.0418C150.693 21.0283 150.433 19.8497 150.433 18.5059C150.433 17.1514 150.693 15.9665 151.212 14.9512C151.731 13.9359 152.469 13.1459 153.427 12.5813C154.385 12.0167 155.521 11.7344 156.835 11.7344C157.615 11.7344 158.333 11.8354 158.989 12.0374C159.644 12.2395 160.225 12.5285 160.732 12.9046C161.239 13.2807 161.656 13.7377 161.984 14.2755C162.311 14.8133 162.538 15.418 162.662 16.0896L159.395 16.7018C159.322 16.3616 159.212 16.0562 159.066 15.7855C158.919 15.5148 158.739 15.2833 158.527 15.091C158.315 14.8988 158.071 14.7523 157.794 14.6517C157.517 14.5511 157.21 14.5008 156.873 14.5008C156.247 14.5008 155.722 14.6692 155.299 15.0059C154.876 15.3427 154.556 15.8105 154.339 16.4092C154.123 17.008 154.015 17.7027 154.015 18.4933C154.015 19.2725 154.123 19.9627 154.339 20.5638C154.556 21.165 154.876 21.6362 155.299 21.9776C155.722 22.3189 156.247 22.4895 156.873 22.4895C157.213 22.4895 157.524 22.4373 157.805 22.3327C158.085 22.2282 158.335 22.077 158.552 21.879C158.77 21.681 158.952 21.4399 159.099 21.1557C159.246 20.8715 159.353 20.5536 159.422 20.2021L162.684 20.8079C162.563 21.4993 162.338 22.1179 162.008 22.6635C161.679 23.2091 161.261 23.6757 160.754 24.0632C160.247 24.4507 159.664 24.7464 159.003 24.9502C158.342 25.154 157.619 25.2559 156.835 25.2559Z" fill="#000F22"/>
</svg>
