<svg width="165" height="28" viewBox="0 0 165 28" fill="none" xmlns="http://www.w3.org/2000/svg">
<path d="M0.5 16.5C0.366667 16.5 0.25 16.45 0.15 16.35C0.05 16.25 0 16.1333 0 16C0 15.8667 0.05 15.75 0.15 15.65C0.25 15.55 0.366667 15.5 0.5 15.5C0.633333 15.5 0.75 15.55 0.85 15.65C0.95 15.75 1 15.8667 1 16C1 16.1333 0.95 16.25 0.85 16.35C0.75 16.45 0.633333 16.5 0.5 16.5V16.5M0.5 12.5C0.366667 12.5 0.25 12.45 0.15 12.35C0.05 12.25 0 12.1333 0 12C0 11.8667 0.05 11.75 0.15 11.65C0.25 11.55 0.366667 11.5 0.5 11.5C0.633333 11.5 0.75 11.55 0.85 11.65C0.95 11.75 1 11.8667 1 12C1 12.1333 0.95 12.25 0.85 12.35C0.75 12.45 0.633333 12.5 0.5 12.5V12.5M3.5 21C3.21667 21 2.97917 20.9042 2.7875 20.7125C2.59583 20.5208 2.5 20.2833 2.5 20C2.5 19.7167 2.59583 19.4792 2.7875 19.2875C2.97917 19.0958 3.21667 19 3.5 19C3.78333 19 4.02083 19.0958 4.2125 19.2875C4.40417 19.4792 4.5 19.7167 4.5 20C4.5 20.2833 4.40417 20.5208 4.2125 20.7125C4.02083 20.9042 3.78333 21 3.5 21V21M3.5 17C3.21667 17 2.97917 16.9042 2.7875 16.7125C2.59583 16.5208 2.5 16.2833 2.5 16C2.5 15.7167 2.59583 15.4792 2.7875 15.2875C2.97917 15.0958 3.21667 15 3.5 15C3.78333 15 4.02083 15.0958 4.2125 15.2875C4.40417 15.4792 4.5 15.7167 4.5 16C4.5 16.2833 4.40417 16.5208 4.2125 16.7125C4.02083 16.9042 3.78333 17 3.5 17V17M3.5 13C3.21667 13 2.97917 12.9042 2.7875 12.7125C2.59583 12.5208 2.5 12.2833 2.5 12C2.5 11.7167 2.59583 11.4792 2.7875 11.2875C2.97917 11.0958 3.21667 11 3.5 11C3.78333 11 4.02083 11.0958 4.2125 11.2875C4.40417 11.4792 4.5 11.7167 4.5 12C4.5 12.2833 4.40417 12.5208 4.2125 12.7125C4.02083 12.9042 3.78333 13 3.5 13V13M3.5 9C3.21667 9 2.97917 8.90417 2.7875 8.7125C2.59583 8.52083 2.5 8.28333 2.5 8C2.5 7.71667 2.59583 7.47917 2.7875 7.2875C2.97917 7.09583 3.21667 7 3.5 7C3.78333 7 4.02083 7.09583 4.2125 7.2875C4.40417 7.47917 4.5 7.71667 4.5 8C4.5 8.28333 4.40417 8.52083 4.2125 8.7125C4.02083 8.90417 3.78333 9 3.5 9V9M7.5 17.5C7.08333 17.5 6.72917 17.3542 6.4375 17.0625C6.14583 16.7708 6 16.4167 6 16C6 15.5833 6.14583 15.2292 6.4375 14.9375C6.72917 14.6458 7.08333 14.5 7.5 14.5C7.91667 14.5 8.27083 14.6458 8.5625 14.9375C8.85417 15.2292 9 15.5833 9 16C9 16.4167 8.85417 16.7708 8.5625 17.0625C8.27083 17.3542 7.91667 17.5 7.5 17.5V17.5M7.5 13.5C7.08333 13.5 6.72917 13.3542 6.4375 13.0625C6.14583 12.7708 6 12.4167 6 12C6 11.5833 6.14583 11.2292 6.4375 10.9375C6.72917 10.6458 7.08333 10.5 7.5 10.5C7.91667 10.5 8.27083 10.6458 8.5625 10.9375C8.85417 11.2292 9 11.5833 9 12C9 12.4167 8.85417 12.7708 8.5625 13.0625C8.27083 13.3542 7.91667 13.5 7.5 13.5V13.5M7.5 21C7.21667 21 6.97917 20.9042 6.7875 20.7125C6.59583 20.5208 6.5 20.2833 6.5 20C6.5 19.7167 6.59583 19.4792 6.7875 19.2875C6.97917 19.0958 7.21667 19 7.5 19C7.78333 19 8.02083 19.0958 8.2125 19.2875C8.40417 19.4792 8.5 19.7167 8.5 20C8.5 20.2833 8.40417 20.5208 8.2125 20.7125C8.02083 20.9042 7.78333 21 7.5 21V21M7.5 9C7.21667 9 6.97917 8.90417 6.7875 8.7125C6.59583 8.52083 6.5 8.28333 6.5 8C6.5 7.71667 6.59583 7.47917 6.7875 7.2875C6.97917 7.09583 7.21667 7 7.5 7C7.78333 7 8.02083 7.09583 8.2125 7.2875C8.40417 7.47917 8.5 7.71667 8.5 8C8.5 8.28333 8.40417 8.52083 8.2125 8.7125C8.02083 8.90417 7.78333 9 7.5 9V9M7.5 23.5C7.36667 23.5 7.25 23.45 7.15 23.35C7.05 23.25 7 23.1333 7 23C7 22.8667 7.05 22.75 7.15 22.65C7.25 22.55 7.36667 22.5 7.5 22.5C7.63333 22.5 7.75 22.55 7.85 22.65C7.95 22.75 8 22.8667 8 23C8 23.1333 7.95 23.25 7.85 23.35C7.75 23.45 7.63333 23.5 7.5 23.5V23.5M7.5 5.5C7.36667 5.5 7.25 5.45 7.15 5.35C7.05 5.25 7 5.13333 7 5C7 4.86667 7.05 4.75 7.15 4.65C7.25 4.55 7.36667 4.5 7.5 4.5C7.63333 4.5 7.75 4.55 7.85 4.65C7.95 4.75 8 4.86667 8 5C8 5.13333 7.95 5.25 7.85 5.35C7.75 5.45 7.63333 5.5 7.5 5.5V5.5M11.5 17.5C11.0833 17.5 10.7292 17.3542 10.4375 17.0625C10.1458 16.7708 10 16.4167 10 16C10 15.5833 10.1458 15.2292 10.4375 14.9375C10.7292 14.6458 11.0833 14.5 11.5 14.5C11.9167 14.5 12.2708 14.6458 12.5625 14.9375C12.8542 15.2292 13 15.5833 13 16C13 16.4167 12.8542 16.7708 12.5625 17.0625C12.2708 17.3542 11.9167 17.5 11.5 17.5V17.5M11.5 13.5C11.0833 13.5 10.7292 13.3542 10.4375 13.0625C10.1458 12.7708 10 12.4167 10 12C10 11.5833 10.1458 11.2292 10.4375 10.9375C10.7292 10.6458 11.0833 10.5 11.5 10.5C11.9167 10.5 12.2708 10.6458 12.5625 10.9375C12.8542 11.2292 13 11.5833 13 12C13 12.4167 12.8542 12.7708 12.5625 13.0625C12.2708 13.3542 11.9167 13.5 11.5 13.5V13.5M11.5 21C11.2167 21 10.9792 20.9042 10.7875 20.7125C10.5958 20.5208 10.5 20.2833 10.5 20C10.5 19.7167 10.5958 19.4792 10.7875 19.2875C10.9792 19.0958 11.2167 19 11.5 19C11.7833 19 12.0208 19.0958 12.2125 19.2875C12.4042 19.4792 12.5 19.7167 12.5 20C12.5 20.2833 12.4042 20.5208 12.2125 20.7125C12.0208 20.9042 11.7833 21 11.5 21V21M11.5 9C11.2167 9 10.9792 8.90417 10.7875 8.7125C10.5958 8.52083 10.5 8.28333 10.5 8C10.5 7.71667 10.5958 7.47917 10.7875 7.2875C10.9792 7.09583 11.2167 7 11.5 7C11.7833 7 12.0208 7.09583 12.2125 7.2875C12.4042 7.47917 12.5 7.71667 12.5 8C12.5 8.28333 12.4042 8.52083 12.2125 8.7125C12.0208 8.90417 11.7833 9 11.5 9V9M11.5 23.5C11.3667 23.5 11.25 23.45 11.15 23.35C11.05 23.25 11 23.1333 11 23C11 22.8667 11.05 22.75 11.15 22.65C11.25 22.55 11.3667 22.5 11.5 22.5C11.6333 22.5 11.75 22.55 11.85 22.65C11.95 22.75 12 22.8667 12 23C12 23.1333 11.95 23.25 11.85 23.35C11.75 23.45 11.6333 23.5 11.5 23.5V23.5M11.5 5.5C11.3667 5.5 11.25 5.45 11.15 5.35C11.05 5.25 11 5.13333 11 5C11 4.86667 11.05 4.75 11.15 4.65C11.25 4.55 11.3667 4.5 11.5 4.5C11.6333 4.5 11.75 4.55 11.85 4.65C11.95 4.75 12 4.86667 12 5C12 5.13333 11.95 5.25 11.85 5.35C11.75 5.45 11.6333 5.5 11.5 5.5V5.5M15.5 21C15.2167 21 14.9792 20.9042 14.7875 20.7125C14.5958 20.5208 14.5 20.2833 14.5 20C14.5 19.7167 14.5958 19.4792 14.7875 19.2875C14.9792 19.0958 15.2167 19 15.5 19C15.7833 19 16.0208 19.0958 16.2125 19.2875C16.4042 19.4792 16.5 19.7167 16.5 20C16.5 20.2833 16.4042 20.5208 16.2125 20.7125C16.0208 20.9042 15.7833 21 15.5 21V21M15.5 17C15.2167 17 14.9792 16.9042 14.7875 16.7125C14.5958 16.5208 14.5 16.2833 14.5 16C14.5 15.7167 14.5958 15.4792 14.7875 15.2875C14.9792 15.0958 15.2167 15 15.5 15C15.7833 15 16.0208 15.0958 16.2125 15.2875C16.4042 15.4792 16.5 15.7167 16.5 16C16.5 16.2833 16.4042 16.5208 16.2125 16.7125C16.0208 16.9042 15.7833 17 15.5 17V17M15.5 13C15.2167 13 14.9792 12.9042 14.7875 12.7125C14.5958 12.5208 14.5 12.2833 14.5 12C14.5 11.7167 14.5958 11.4792 14.7875 11.2875C14.9792 11.0958 15.2167 11 15.5 11C15.7833 11 16.0208 11.0958 16.2125 11.2875C16.4042 11.4792 16.5 11.7167 16.5 12C16.5 12.2833 16.4042 12.5208 16.2125 12.7125C16.0208 12.9042 15.7833 13 15.5 13V13M15.5 9C15.2167 9 14.9792 8.90417 14.7875 8.7125C14.5958 8.52083 14.5 8.28333 14.5 8C14.5 7.71667 14.5958 7.47917 14.7875 7.2875C14.9792 7.09583 15.2167 7 15.5 7C15.7833 7 16.0208 7.09583 16.2125 7.2875C16.4042 7.47917 16.5 7.71667 16.5 8C16.5 8.28333 16.4042 8.52083 16.2125 8.7125C16.0208 8.90417 15.7833 9 15.5 9V9M18.5 16.5C18.3667 16.5 18.25 16.45 18.15 16.35C18.05 16.25 18 16.1333 18 16C18 15.8667 18.05 15.75 18.15 15.65C18.25 15.55 18.3667 15.5 18.5 15.5C18.6333 15.5 18.75 15.55 18.85 15.65C18.95 15.75 19 15.8667 19 16C19 16.1333 18.95 16.25 18.85 16.35C18.75 16.45 18.6333 16.5 18.5 16.5V16.5M18.5 12.5C18.3667 12.5 18.25 12.45 18.15 12.35C18.05 12.25 18 12.1333 18 12C18 11.8667 18.05 11.75 18.15 11.65C18.25 11.55 18.3667 11.5 18.5 11.5C18.6333 11.5 18.75 11.55 18.85 11.65C18.95 11.75 19 11.8667 19 12C19 12.1333 18.95 12.25 18.85 12.35C18.75 12.45 18.6333 12.5 18.5 12.5V12.5" fill="#43474D"/>
<path d="M27.4762 21L32.4535 6.44922H36.3528L41.4565 21H38.1428L35.811 13.981C35.5272 13.0744 35.2416 12.0818 34.954 11.003C34.6665 9.92418 34.363 8.74871 34.0436 7.47657H34.6905C34.3811 8.7547 34.0917 9.93616 33.8222 11.0209C33.5528 12.1057 33.2842 13.0924 33.0164 13.981L30.7673 21H27.4762ZM30.586 17.6231V15.2848H38.3467V17.6231H30.586ZM43.0988 21V19.2273L48.4888 12.527V12.446H43.273V10.082H52.0307V12.0217L46.9536 18.555V18.6361H52.2155V21H43.0988ZM58.3935 21.1367C57.6403 21.1367 56.9809 20.9722 56.4155 20.6431C55.8501 20.314 55.4119 19.8417 55.1009 19.2262C54.7899 18.6107 54.6344 17.8773 54.6344 17.0262V10.082H57.563V16.5158C57.563 17.1939 57.7386 17.7258 58.0899 18.1114C58.4412 18.497 58.9256 18.6898 59.5432 18.6898C59.9585 18.6898 60.3246 18.5996 60.6413 18.4192C60.958 18.2388 61.207 17.9772 61.3881 17.6344C61.5692 17.2917 61.6597 16.8814 61.6597 16.4035V10.082H64.5928V21H61.823L61.7808 18.2744H61.9519C61.6626 19.1911 61.2247 19.8973 60.6381 20.3931C60.0515 20.8888 59.3033 21.1367 58.3935 21.1367ZM67.0855 21V10.082H69.9239V11.9832H70.0411C70.2394 11.3103 70.5745 10.8009 71.0463 10.4551C71.5182 10.1092 72.0603 9.93633 72.6727 9.93633C72.824 9.93633 72.9865 9.94486 73.1603 9.96192C73.3341 9.97897 73.4871 10.0031 73.6194 10.0342V12.6508C73.49 12.6062 73.3009 12.57 73.0521 12.5422C72.8033 12.5144 72.5705 12.5005 72.3537 12.5005C71.9067 12.5005 71.5055 12.5972 71.1501 12.7907C70.7947 12.9842 70.5166 13.252 70.3156 13.5942C70.1146 13.9364 70.0141 14.3338 70.0141 14.7864V21H67.0855ZM79.6797 21.2133C78.5652 21.2133 77.6044 20.9851 76.7973 20.5286C75.9901 20.0722 75.3701 19.424 74.9374 18.5842C74.5046 17.7443 74.2883 16.7487 74.2883 15.5973C74.2883 14.474 74.5033 13.4885 74.9333 12.6409C75.3633 11.7933 75.9715 11.1322 76.7579 10.6574C77.5443 10.1827 78.4692 9.94531 79.5326 9.94531C80.2457 9.94531 80.9119 10.0589 81.5313 10.2861C82.1507 10.5134 82.6943 10.856 83.162 11.3141C83.6298 11.7721 83.9952 12.3477 84.258 13.0408C84.5209 13.7339 84.6524 14.5481 84.6524 15.4834V16.3055H75.4902V14.4625H83.2252L81.8564 14.9566C81.8564 14.3881 81.7696 13.8941 81.596 13.4746C81.4223 13.0551 81.1651 12.7297 80.8244 12.4983C80.4836 12.2669 80.0601 12.1512 79.5537 12.1512C79.0474 12.1512 78.6178 12.2684 78.2651 12.5028C77.9124 12.7371 77.6439 13.0551 77.4598 13.4567C77.2757 13.8582 77.1837 14.3148 77.1837 14.8264V16.1238C77.1837 16.7553 77.2894 17.2859 77.5007 17.7154C77.7121 18.145 78.0095 18.4677 78.3927 18.6836C78.776 18.8994 79.2205 19.0074 79.7264 19.0074C80.0682 19.0074 80.3788 18.9587 80.6583 18.8614C80.9378 18.7641 81.1781 18.6199 81.3793 18.4291C81.5804 18.2382 81.7336 18.0029 81.8386 17.7232L84.4871 18.2131C84.3108 18.8162 84.005 19.3428 83.5698 19.7929C83.1345 20.2429 82.5891 20.5922 81.9336 20.8406C81.2781 21.0891 80.5268 21.2133 79.6797 21.2133ZM91.4593 21V6.44922H94.4434V18.5261H100.718V21H91.4593ZM107.587 21.2133C106.492 21.2133 105.545 20.978 104.745 20.5075C103.945 20.037 103.328 19.3795 102.896 18.5349C102.463 17.6903 102.247 16.7081 102.247 15.5883C102.247 14.4595 102.463 13.4721 102.896 12.626C103.328 11.7799 103.945 11.1216 104.745 10.6511C105.545 10.1806 106.492 9.94531 107.587 9.94531C108.685 9.94531 109.633 10.1806 110.431 10.6511C111.229 11.1216 111.844 11.7799 112.277 12.626C112.709 13.4721 112.925 14.4595 112.925 15.5883C112.925 16.7081 112.709 17.6903 112.277 18.5349C111.844 19.3795 111.229 20.037 110.431 20.5075C109.633 20.978 108.685 21.2133 107.587 21.2133ZM107.587 18.908C108.108 18.908 108.544 18.7631 108.895 18.4734C109.245 18.1837 109.508 17.7875 109.683 17.2847C109.858 16.782 109.946 16.213 109.946 15.5777C109.946 14.9359 109.858 14.3648 109.683 13.8644C109.508 13.3639 109.245 12.9699 108.895 12.6822C108.544 12.3945 108.108 12.2506 107.587 12.2506C107.065 12.2506 106.63 12.3945 106.281 12.6822C105.932 12.9699 105.669 13.3632 105.494 13.8621C105.319 14.3611 105.232 14.9329 105.232 15.5777C105.232 16.213 105.319 16.782 105.494 17.2847C105.669 17.7875 105.932 18.1837 106.281 18.4734C106.63 18.7631 107.065 18.908 107.587 18.908ZM119.817 25.3164C118.908 25.3164 118.116 25.2016 117.441 24.9719C116.765 24.7422 116.216 24.4255 115.791 24.022C115.367 23.6184 115.075 23.1565 114.914 22.6363L117.431 21.9398C117.524 22.1411 117.666 22.338 117.857 22.5303C118.047 22.7227 118.302 22.8803 118.62 23.0031C118.939 23.1259 119.334 23.1873 119.807 23.1873C120.553 23.1873 121.139 23.0158 121.567 22.673C121.995 22.3302 122.209 21.7974 122.209 21.0748V19.0666H121.98C121.849 19.3593 121.66 19.6419 121.412 19.9143C121.165 20.1867 120.841 20.4099 120.44 20.5841C120.04 20.7582 119.544 20.8453 118.953 20.8453C118.134 20.8453 117.388 20.6527 116.716 20.2674C116.044 19.8821 115.509 19.2958 115.11 18.5086C114.712 17.7214 114.513 16.7264 114.513 15.5238C114.513 14.2921 114.716 13.2629 115.122 12.4363C115.528 11.6098 116.067 10.9879 116.741 10.5709C117.414 10.1538 118.154 9.94531 118.961 9.94531C119.576 9.94531 120.091 10.0486 120.506 10.2551C120.92 10.4616 121.257 10.7181 121.514 11.0246C121.772 11.3311 121.968 11.6295 122.102 11.9197H122.221V10.082H125.106V20.9088C125.106 21.892 124.879 22.7104 124.426 23.3641C123.973 24.0179 123.349 24.5067 122.554 24.8306C121.759 25.1545 120.847 25.3164 119.817 25.3164ZM119.869 18.6183C120.371 18.6183 120.797 18.4951 121.145 18.2486C121.494 18.0021 121.759 17.6459 121.943 17.18C122.126 16.714 122.218 16.156 122.218 15.5059C122.218 14.8577 122.127 14.2935 121.945 13.8133C121.763 13.3331 121.498 12.9596 121.149 12.6929C120.801 12.4262 120.374 12.2928 119.869 12.2928C119.358 12.2928 118.928 12.4307 118.578 12.7064C118.228 12.9821 117.964 13.3608 117.786 13.8425C117.607 14.3242 117.518 14.8787 117.518 15.5059C117.518 16.1385 117.608 16.6886 117.788 17.156C117.968 17.6235 118.233 17.984 118.582 18.2378C118.932 18.4915 119.361 18.6183 119.869 18.6183ZM127.603 21V10.082H130.532V21H127.603ZM129.067 8.65882C128.626 8.65882 128.248 8.51139 127.933 8.21653C127.618 7.92168 127.461 7.56786 127.461 7.15506C127.461 6.73384 127.618 6.37753 127.933 6.08612C128.248 5.79471 128.626 5.649 129.067 5.649C129.51 5.649 129.889 5.79452 130.204 6.08555C130.519 6.37659 130.677 6.733 130.677 7.15479C130.677 7.56814 130.519 7.92215 130.204 8.21682C129.889 8.51148 129.51 8.65882 129.067 8.65882ZM137.904 21.2133C136.809 21.2133 135.862 20.978 135.064 20.5075C134.266 20.037 133.651 19.3795 133.218 18.5349C132.786 17.6903 132.57 16.7081 132.57 15.5883C132.57 14.4595 132.786 13.4721 133.218 12.626C133.651 11.7799 134.266 11.1216 135.064 10.6511C135.862 10.1806 136.809 9.94531 137.904 9.94531C138.555 9.94531 139.153 10.0295 139.699 10.1979C140.245 10.3662 140.729 10.6071 141.152 10.9205C141.574 11.2339 141.922 11.6147 142.195 12.0629C142.468 12.5111 142.656 13.015 142.76 13.5747L140.037 14.0848C139.977 13.8013 139.885 13.5468 139.763 13.3212C139.641 13.0957 139.491 12.9028 139.315 12.7425C139.138 12.5823 138.934 12.4603 138.703 12.3764C138.472 12.2926 138.216 12.2506 137.936 12.2506C137.414 12.2506 136.977 12.391 136.624 12.6716C136.271 12.9523 136.005 13.3421 135.824 13.841C135.644 14.34 135.554 14.9189 135.554 15.5777C135.554 16.2271 135.644 16.8022 135.824 17.3032C136.005 17.8042 136.271 18.1969 136.624 18.4813C136.977 18.7657 137.414 18.908 137.936 18.908C138.219 18.908 138.478 18.8644 138.712 18.7773C138.946 18.6902 139.154 18.5641 139.335 18.3992C139.517 18.2342 139.668 18.0333 139.791 17.7964C139.913 17.5596 140.003 17.2947 140.06 17.0017L142.778 17.5066C142.677 18.0828 142.49 18.5982 142.215 19.0529C141.941 19.5076 141.592 19.8964 141.17 20.2193C140.748 20.5422 140.261 20.7886 139.71 20.9585C139.16 21.1284 138.558 21.2133 137.904 21.2133Z" fill="#43474D"/>
</svg>
